<svg width="23.999999999999996" height="23.999999999999996" xmlns="http://www.w3.org/2000/svg">
 <title/>
 <desc/>

 <g>
  <title>background</title>
  <rect fill="none" id="canvas_background" height="402" width="582" y="-1" x="-1"/>
 </g>
 <g>
  <title>Layer 1</title>
  <path id="device-camera-capture-photo-glyph" fill="#008db9" d="m17.2,6l3.8,0c0,0 2,0 2,2l0,10c0,2 -2,2 -2,2l-18,0c0,0 -2,0 -2,-2l0,-10c0,-2 2,-2 2,-2l3.8,0l0.93872,-1.56453c0.14358,-0.2393 0.48533,-0.43547 0.76172,-0.43547l6.99912,0c0.26964,0 0.61742,0.19497 0.76172,0.43547l0.93872,1.56453l0,0zm-5.2,11c2.48528,0 4.5,-2.01472 4.5,-4.5c0,-2.48528 -2.01472,-4.5 -4.5,-4.5c-2.48528,0 -4.5,2.01472 -4.5,4.5c0,2.48528 2.01472,4.5 4.5,4.5zm0,-1c1.933,0 3.5,-1.567 3.5,-3.5c0,-1.933 -1.567,-3.5 -3.5,-3.5c-1.933,0 -3.5,1.567 -3.5,3.5c0,1.933 1.567,3.5 3.5,3.5zm6,-6c0.55228,0 1,-0.44772 1,-1c0,-0.55228 -0.44772,-1 -1,-1c-0.55228,0 -1,0.44772 -1,1c0,0.55228 0.44772,1 1,1zm-13.77832,-5.5c-0.12243,0 -0.22168,0.08874 -0.22168,0.19996l0,0.60008c0,0.11043 0.09918,0.19996 0.22168,0.19996l1.55664,0c0.12243,0 0.22168,-0.08874 0.22168,-0.19996l0,-0.60008c0,-0.11043 -0.09918,-0.19996 -0.22168,-0.19996l-1.55664,0z"/>
 </g>
</svg>